# Blender v2.75 (sub 0) OBJ File: 'Tier1Ship.blend'
# www.blender.org
mtllib Tier1Ship.mtl
o Cube
v -0.000000 1.000000 -0.011027
v -1.000000 -1.000000 0.000045
v 1.000000 -0.999999 0.000045
v 0.000000 -1.000000 -0.488973
vt 0.500000 1.000000
vt 0.000000 0.312500
vt 0.500000 0.500000
vt 1.000000 0.312500
vt 0.500000 0.000000
vn 0.429500 0.209900 -0.878300
vn -0.429500 0.209900 -0.878300
vn 0.000000 0.005500 1.000000
vn 0.000000 -1.000000 0.000000
usemtl Material
s off
f 1/1/1 3/2/1 4/3/1
f 1/1/2 4/3/2 2/4/2
f 1/5/3 2/4/3 3/2/3
f 2/4/4 4/3/4 3/2/4
